<svg width="177" height="162" viewBox="0 0 177 162" fill="none" xmlns="http://www.w3.org/2000/svg">
<path d="M117.092 97.8233C114.326 99.3563 111.726 100.78 109.183 102.257C107.856 103.022 106.475 103.895 105.262 104.766C104.766 105.146 104.498 105.737 104.117 106.275C101.775 109.455 100.334 112.995 100.634 116.936C100.778 118.64 101.817 120.278 102.129 121.979C102.561 124.106 103.876 125.579 105.576 126.781C107.391 128.088 109.317 129.393 111.398 130.055C113.648 130.769 116.167 130.893 118.629 131.017C123.163 131.271 127.75 131.418 132.337 131.565C134.854 131.635 137.426 131.597 139.997 131.56C141.841 131.533 142.868 132.585 143.118 133.967C143.43 135.616 143.128 137.379 143.106 139.139C143.087 141.006 143.124 142.924 143.104 144.791C143.142 146.763 143.18 148.735 143.217 150.654C143.261 152.893 143.416 155.13 143.347 157.37C143.268 159.024 141.216 159.907 139.589 159.61C137.849 159.262 136.005 159.289 134.216 159.315C126.837 159.369 119.457 159.369 112.081 159.529C106.771 159.606 101.466 159.95 96.1573 160.08C91.0721 160.207 85.9828 160.121 80.8966 160.195C75.1955 160.278 69.4945 160.36 63.7934 160.443C59.9368 160.499 56.0202 160.342 52.1647 160.452C48.8121 160.554 45.5207 160.921 42.1733 161.29C40.5555 161.473 38.6749 159.634 38.7537 157.927C38.8356 156.38 38.5821 154.837 38.6081 153.291C38.5648 151.052 38.6901 148.864 38.6468 146.626C38.6221 145.346 38.3737 144.07 38.349 142.791C38.2487 140.5 38.2054 138.261 38.2169 135.969C38.2388 134.209 39.3909 133.072 41.2343 132.992C46.2067 132.814 51.1242 132.689 56.0966 132.51C57.7165 132.434 59.3953 132.516 60.9572 132.333C62.6868 132.148 64.4122 131.75 66.1397 131.458C67.0868 131.285 68.037 131.271 68.9271 131.045C72.4867 130.087 75.1273 127.862 77.4812 125.269C77.535 125.162 77.6447 125.053 77.6985 124.946C79.5836 121.24 81.0184 117.38 79.4858 113.297C78.4841 110.646 77.2577 107.945 75.4817 105.731C74.3919 104.307 72.2525 103.539 70.5002 102.551C68.0141 101.201 65.4742 99.9582 62.9333 98.6621C65.0828 102.843 64.6623 107.114 62.4418 110.825C61.1955 112.869 58.7123 114.558 56.3855 115.658C51.5661 117.967 46.7905 116.757 42.4341 114.101C38.5301 111.705 35.8062 106.733 39.3557 102.363C40.7759 100.636 40.3838 97.7096 38.4617 96.6178C35.2377 94.6919 31.8501 92.9816 28.624 90.949C26.0779 89.3865 23.5846 87.6632 21.2558 85.7776C19.1548 84.102 17.0517 82.3197 15.3347 80.2653C13.5618 78.2117 12.2847 75.7777 10.7861 73.4535C9.74805 71.8157 8.71001 70.178 7.83861 68.4845C6.96618 66.7377 6.03786 64.9918 5.55461 63.1327C4.23007 58.2469 3.12911 53.3578 2.02814 48.4686C1.53561 46.1299 1.20973 43.7354 1.05153 41.3385C0.764001 38.037 0.36366 34.6839 0.5802 31.4285C0.995555 26.8906 1.80422 22.4537 2.55596 17.9642C2.85934 16.307 4.23603 15.2207 5.85485 15.0906C9.20429 14.8288 12.6148 14.8326 15.9683 14.784C18.3158 14.75 20.7192 14.7151 23.0677 14.7344C24.9132 14.7609 26.7049 14.8949 28.5504 14.9214C29.7251 14.9577 30.9009 15.0473 32.0167 14.9245C32.2962 14.9204 32.7279 14.1144 32.6637 13.6888C32.369 10.0143 34.1173 7.90961 37.9005 6.94837C41.4611 6.04367 44.9038 4.82079 48.4654 3.9694C50.6359 3.45807 52.9265 3.37154 55.1571 3.07261C56.8856 2.83428 58.5552 2.43685 60.2858 2.30512C63.1322 2.05057 65.9817 1.95593 68.7732 1.7555C71.0068 1.61647 73.1815 1.31835 75.4151 1.17933C79.4912 0.90695 83.5662 0.581271 87.7033 0.574588C91.2804 0.52271 94.9206 0.843128 98.5009 0.951153C100.571 1.02776 102.693 0.890357 104.763 0.966967C107.841 1.13559 110.867 1.46492 113.889 1.63436C115.568 1.71664 117.245 1.69232 118.978 1.72049C119.929 1.76002 120.826 1.85365 121.779 1.99977C125.929 2.6327 130.185 2.9975 134.285 4.00435C137.207 4.76172 139.921 6.32184 142.632 7.72206C144.27 8.60467 144.19 10.2586 143.829 11.81C143.572 12.9867 143.972 13.4074 145.199 13.283C147.767 13.0858 150.391 12.8878 152.96 12.7439C155.139 12.659 157.321 12.734 159.5 12.6491C161.008 12.5739 162.513 12.3388 163.966 12.3177C166.314 12.337 168.663 12.3562 170.961 12.6428C172.978 12.8801 174.07 14.4105 174.382 16.112C175.125 19.8334 175.645 23.558 176.109 27.3367C176.435 29.7312 176.481 32.1297 176.64 34.5267C176.648 34.9531 176.544 35.3811 176.554 35.8608C176.386 38.7423 176.274 41.623 176.106 44.5045C176.018 45.732 175.65 46.9636 175.45 48.1928C174.945 50.9726 174.497 53.8048 173.88 56.5862C173.314 59.1536 172.693 61.7218 171.735 64.1882C170.989 66.1184 169.793 67.8419 168.822 69.6687C168.227 70.7436 167.746 71.8702 167.096 72.946C166.555 73.8602 165.845 74.7236 165.19 75.5861C164.483 76.6094 163.89 77.7376 163.068 78.6026C160.931 80.8195 158.679 82.9315 156.371 84.991C152.47 88.5131 147.762 90.8207 143.172 93.3931C141.899 94.1047 140.183 94.9826 139.925 96.106C139.563 97.6041 139.828 99.7329 140.747 100.999C142.356 103.268 142.218 107.696 140.694 109.797C138.08 113.407 134.415 114.687 130.515 115.383C128.23 115.789 125.534 115.135 123.281 114.262C119.845 112.978 117.335 110.349 116.319 107.005C115.65 104.189 115.31 101.048 117.092 97.8233ZM37.9733 16.4909C37.8407 18.3056 37.6553 20.2809 37.6376 22.2539C37.6219 24.3334 37.9406 26.3548 37.9249 28.4344C37.9051 30.3007 37.551 32.2252 37.643 34.09C37.7371 36.0613 38.2783 38.0261 38.54 39.995C38.9414 43.4014 39.1761 46.8636 39.6893 50.2684C40.0141 52.6096 40.5615 54.8942 41.054 57.233C41.2993 58.349 41.5445 59.4651 41.9015 60.5796C42.7967 63.499 43.6369 66.4725 44.7556 69.3887C45.4045 71.1387 46.4425 72.7764 47.3688 74.4158C48.7576 76.8482 50.1465 79.2806 51.8118 81.549C53.7068 84.134 55.8222 86.5559 57.9926 88.9236C59.4208 90.5024 61.0716 92.0246 62.828 93.2254C64.5844 94.4262 66.6669 95.1424 68.532 96.1817C70.8484 97.4277 73.0042 99.0492 75.4283 100.08C77.7405 101.113 79.56 102.686 80.7709 104.588C82.4992 107.229 83.7856 110.143 84.8484 113.06C85.5573 115.022 85.5447 117.261 85.8654 119.389C85.8685 119.549 85.8716 119.709 85.8188 119.87C84.4224 122.823 83.3643 125.93 80.9535 128.471C77.5573 132.092 73.7554 134.973 68.5677 135.582C63.1564 136.193 57.7441 136.752 52.3297 137.203C49.7618 137.401 47.1866 137.225 44.6166 137.315C44.2253 137.321 43.508 137.811 43.5131 138.078C43.6196 140.689 43.8388 143.351 44.0012 145.961C44.1666 148.731 44.2213 151.556 44.3867 154.326C44.4776 156.138 45.3802 156.551 47.2785 156.417C50.7956 156.153 54.3158 156.048 57.837 155.997C60.1286 155.964 62.4792 156.09 64.7698 156.004C66.5024 155.978 68.2289 155.633 69.9057 155.609C74.0966 155.495 78.2886 155.434 82.4816 155.427C86.5058 155.368 90.588 155.416 94.6134 155.411C97.2972 155.425 99.9262 155.494 102.609 155.455C105.46 155.413 108.307 155.212 111.158 155.171C113.058 155.143 114.96 155.222 116.805 155.196C118.649 155.169 120.437 155.09 122.282 155.116C124.575 155.136 126.868 155.156 129.216 155.175C131.061 155.149 132.846 154.963 134.695 155.149C136.934 155.33 137.488 155.056 137.669 152.867C137.764 151.959 137.633 151.001 137.672 150.094C137.731 147.375 137.901 144.6 137.96 141.88C137.985 140.28 137.954 138.681 137.866 137.029C137.861 136.763 137.459 136.235 137.236 136.239C133.879 136.127 130.58 136.122 127.224 136.011C123.252 135.908 119.283 135.913 115.362 135.543C112.561 135.264 109.59 134.827 107.161 133.529C103.489 131.61 99.811 129.317 98.0559 125.291C97.9969 125.132 97.7153 125.029 97.6563 124.87C96.7249 122.964 95.1797 121.12 95.0298 119.15C94.8157 116.754 95.7743 114.287 96.175 111.882C96.729 108.729 98.2434 106.094 100.206 103.506C102.169 100.919 104.994 99.5983 107.534 97.9087C109.134 96.8191 111.023 96.2053 112.68 95.1682C114.724 93.9123 116.711 92.5506 118.582 91.0306C120.453 89.4573 122.378 87.8299 123.851 85.9425C125.925 83.3532 127.828 80.5532 129.562 77.7023C130.971 75.3893 132.265 72.918 133.222 70.3982C134.502 67.1807 135.5 63.8607 136.555 60.5931C136.922 59.3615 137.178 58.1315 137.377 56.849C137.725 54.6047 137.96 52.3087 138.195 50.0127C138.433 47.8766 138.728 45.793 138.91 43.6577C139.095 41.629 139.223 39.6012 139.351 37.52C139.485 35.8119 139.732 34.1022 139.698 32.3433C139.658 30.2646 139.281 28.1374 139.185 26.0595C139.057 22.3292 139.04 18.5973 138.968 14.8662C136.804 15.6974 134.975 16.5236 133.031 17.1916C130.643 18.026 128.197 18.7546 125.695 19.4306C122.692 20.2739 119.632 21.0647 116.626 21.7481C115.012 22.0914 113.335 22.1157 111.663 22.4066C109.156 22.8695 106.656 23.6522 104.089 23.9026C101.523 24.2064 98.9486 24.0838 96.3785 24.1744C96.0991 24.1785 95.7647 24.2366 95.4853 24.2407C92.4702 24.4444 89.5151 24.8604 86.4958 24.8509C83.5325 24.8406 80.6178 24.4563 77.6514 24.2861C76.3079 24.1989 74.9706 24.4316 73.6271 24.3444C72.6759 24.3049 71.7744 23.9448 70.8211 23.7986C68.3546 23.4612 65.8902 23.2304 63.4806 22.9454C61.6869 22.7048 59.8352 22.3585 58.0405 22.0646C56.1898 21.7716 54.3413 21.5851 52.5434 21.1313C50.0707 20.4741 47.7067 19.6553 45.2879 18.8907C42.9798 18.0711 40.5609 17.3064 37.9733 16.4909ZM32.6994 21.3125C32.9562 20.1358 32.1024 19.3485 29.9805 19.4859C28.0263 19.6208 26.1239 19.5418 24.1666 19.5169C18.9665 19.4857 13.8234 19.5069 8.62125 19.3691C7.2788 19.3353 7.06657 19.9248 6.97336 20.8859C6.78486 22.7013 6.5415 24.5709 6.46581 26.4381C6.30826 29.8526 6.15174 33.3204 6.10597 36.7333C6.07483 38.0133 6.43392 39.2344 6.57046 40.512C6.84354 43.0672 6.89409 45.679 7.39074 48.2309C7.76323 50.1449 7.18658 52.126 8.50924 54.0262C9.31443 55.1874 9.29258 56.9472 9.71168 58.3806C11.0228 62.5736 12.2222 66.7682 14.7536 70.4636C16.1922 72.5753 17.4652 74.7962 19.1253 76.7981C20.8423 78.8525 22.7808 80.7971 24.828 82.5802C26.6475 84.1532 28.7423 85.5091 30.8362 86.8116C32.8161 88.0092 34.9027 88.9386 36.9365 90.0287C38.5191 90.9122 39.9939 92.0104 41.6324 92.893C44.0615 94.1907 44.8304 96.3655 45.324 98.7576C45.8144 100.99 44.7886 102.871 43.6489 104.647C42.7804 105.992 43.1114 108.653 44.2478 109.596C46.3489 111.272 48.6021 112.146 51.4537 112.158C55.5918 112.204 59.8751 108.197 59.0711 104.21C58.5714 101.498 58.1255 98.6785 56.1797 96.3608C55.6643 95.7285 55.1489 95.0962 54.855 94.354C53.2747 90.6982 50.2214 88.9297 46.4001 87.9188C43.6459 87.159 40.8907 86.3459 38.242 85.2647C35.7062 84.2351 33.2232 83.0449 30.9028 81.5857C28.6951 80.1782 26.6489 78.4484 24.8253 76.6621C23.5719 75.454 22.6467 73.868 21.7235 72.3885C20.5706 70.5925 19.4177 68.7964 18.5421 66.8898C17.6646 64.8765 17.1762 62.7509 16.577 60.6803C15.7999 58.0791 15.0237 55.5312 14.3584 52.9283C14.1763 52.1845 14.2715 51.3301 14.2002 50.5314C14.1267 49.6261 14.0543 48.7741 13.9809 47.8688C13.9065 46.9102 13.833 46.0049 13.7586 45.0462C13.68 43.8744 13.5465 42.7567 13.5238 41.5841C13.5333 39.1847 13.5438 36.8387 13.721 34.4369C13.9053 32.4082 14.1994 30.2713 14.8889 28.3419C15.2088 27.5376 16.7573 26.662 17.7085 26.7016C22.4097 26.9533 27.0601 27.4723 31.7085 27.8847C31.8761 27.8823 32.2074 27.6642 32.2612 27.5568C32.5056 25.7405 32.5823 23.9267 32.6994 21.3125ZM161.801 59.3206C161.913 59.3722 162.026 59.4239 162.138 59.4223C161.821 60.3866 161.504 61.3509 161.131 62.2627C160.437 63.9788 159.855 65.6934 159.049 67.3579C158.243 69.0757 157.439 70.8468 156.238 72.357C154.712 74.3519 152.902 76.1908 150.977 77.8183C149.053 79.499 146.958 81.0222 144.69 82.2813C143.141 83.1569 141.191 83.505 139.471 84.1698C137.084 85.0575 134.64 85.8926 132.312 86.9394C130.428 87.8198 128.604 88.8592 126.951 90.1095C126.123 90.708 125.869 91.9912 125.215 92.8538C123.635 95.0093 122.338 97.3207 121.605 99.8905C120.715 102.996 120.882 105.872 123.059 108.56C124.605 110.457 126.465 111.23 128.921 111.034C131.321 110.839 133.548 110.327 135.472 108.647C137.121 107.183 137.635 104.883 136.314 103.036C135.625 102.14 134.878 101.084 134.747 100.073C134.191 94.483 135.888 92.5924 140.362 89.755C141.687 88.8828 143.357 88.5387 144.682 87.6664C147.938 85.4865 151.251 83.3058 154.277 80.8094C156.314 79.1271 158.006 77.0232 159.756 75.0251C160.741 73.8912 161.385 72.4957 162.198 71.2043C163.284 69.5357 164.763 67.9681 165.399 66.1461C166.936 61.8052 168.136 57.3626 169.449 52.9717C169.868 51.526 170.231 50.0279 170.37 48.5864C170.612 46.6102 170.684 44.5831 170.814 42.6086C171.045 40.0994 171.388 37.5885 171.395 35.0826C171.397 32.3101 171.121 29.595 170.844 26.8266C170.505 23.7392 170.055 20.7067 169.549 17.675C169.488 17.4093 168.922 17.0976 168.643 17.1017C166.015 17.0865 163.387 17.0713 160.761 17.1627C155.566 17.3979 150.372 17.6865 145.179 18.0284C144.844 18.0333 144.351 18.5736 144.357 18.8934C144.338 20.7597 144.263 22.6802 144.523 24.5425C144.587 24.9681 144.114 26.5211 145.896 26.1754C147.456 25.8862 149.134 25.9152 150.697 25.7859C153.041 25.5919 155.443 25.5038 157.726 24.9908C160.064 24.4771 161.918 24.93 162.575 27.1064C163.169 28.9106 163.375 30.8803 163.523 32.7442C163.748 35.7266 163.863 38.764 163.92 41.7488C163.944 42.9748 163.633 44.2056 163.599 45.379C163.578 47.1387 163.78 48.9485 163.591 50.7107C163.301 53.0608 162.731 55.415 162.217 57.715C162.34 58.2997 162.014 58.7843 161.801 59.3206ZM40.1638 11.2341C41.6895 12.0651 42.7669 12.8492 43.9489 13.2586C45.637 13.8206 47.4287 13.9545 49.1147 14.4099C51.4756 15.0688 53.732 16.1024 56.1457 16.6005C58.6732 17.2037 61.3043 17.3788 63.8836 17.7679C66.2942 18.1062 68.7607 18.4436 71.1713 18.7819C72.4051 18.9772 73.6419 19.3325 74.8736 19.4213C76.4976 19.5577 78.1164 19.4276 79.7404 19.5639C81.3075 19.6479 82.8248 20.0524 84.3909 20.083C86.0687 20.112 87.6854 19.8753 89.3622 19.8509C90.536 19.8339 91.7128 19.9768 92.8855 19.9065C94.1141 19.8353 95.2827 19.5518 96.5103 19.4274C97.4594 19.3603 98.4696 19.5589 99.4167 19.3852C102.092 18.9732 104.765 18.4013 107.44 17.9893C109.726 17.6362 112.072 17.5489 114.357 17.1425C116.084 16.8509 117.748 16.1337 119.472 15.6821C122.81 14.834 126.151 14.1457 129.43 13.1385C131.764 12.4115 133.866 11.2081 136.083 10.2163C136.08 10.0564 136.076 9.84315 136.073 9.68325C135.062 9.48463 134.053 9.33932 133.042 9.08741C131.974 8.783 130.957 8.26458 129.836 8.12089C127.706 7.83189 125.579 7.70279 123.451 7.52039C120.091 7.19591 116.73 6.87144 113.37 6.60027C111.13 6.41949 108.949 6.3978 106.711 6.27032C104.416 6.14366 102.177 6.01618 99.8823 5.88951C98.5947 5.80155 97.2523 5.7677 95.9657 5.73305C94.5115 5.70082 93.0593 5.7752 91.6061 5.79627C89.594 5.82545 87.5239 5.74884 85.5117 5.77803C82.774 5.87105 80.0384 6.07067 77.2448 6.1645C76.0162 6.23563 74.7834 6.09356 73.6118 6.21719C72.2165 6.34406 70.7685 6.63164 69.3722 6.7052C66.916 6.90077 64.4577 6.98974 62.0005 7.13201C59.9356 7.3219 57.8148 7.51261 55.7519 7.80911C53.8557 8.04987 52.0153 8.28983 50.1212 8.63719C48.4496 8.92802 46.78 9.32544 45.1115 9.77617C44.388 9.94661 43.7245 10.3294 43.002 10.5532C42.1688 10.8319 41.3324 10.9506 40.1638 11.2341ZM19.593 31.6326C19.4284 31.795 18.9295 32.0155 18.9336 32.2287C18.8662 34.5222 18.7988 36.8158 18.8431 39.1077C18.8792 40.9733 19.0271 42.8372 19.0632 44.7027C19.0869 45.9287 18.8871 47.1578 19.0775 48.328C19.5213 51.0407 20.077 53.7518 20.7992 56.4071C21.4667 59.1165 22.3007 61.7702 23.1348 64.4239C23.4308 65.2727 23.8944 66.119 24.3012 66.9129C25.4023 68.9229 26.283 71.0961 27.8251 72.7798C29.7677 74.9376 32.2631 76.7675 34.5908 78.5998C35.3857 79.2281 36.4 79.6399 37.4143 80.0517C40.004 80.9738 42.5926 81.8427 45.1812 82.7115C45.5186 82.8132 45.9109 82.8609 46.2483 82.9626C46.1852 82.5903 46.1769 82.1639 46.0031 81.8465C44.4372 78.9368 42.7606 76.0821 41.1948 73.1724C40.1495 71.1616 39.215 69.0958 38.3923 67.0284C37.5126 64.9085 36.633 62.7886 36.0318 60.6114C35.4864 58.4333 35.2744 56.1438 34.9516 53.9092C34.5668 51.3557 34.2367 48.748 33.8519 46.1944C33.5922 44.3321 33.2756 42.4173 33.1836 40.5526C33.0223 37.9957 33.0287 35.4365 32.9233 32.8788C32.9202 32.7189 32.411 32.4064 32.1864 32.3564C30.9557 32.3209 29.6712 32.3928 28.4395 32.3041C25.53 32.1863 22.6733 31.9078 19.593 31.6326ZM132.611 82.1366C136.548 80.48 140.213 79.2006 143.703 77.4972C145.751 76.4545 147.679 74.987 149.212 73.312C150.909 71.4213 152.264 69.2157 153.507 67.0117C154.589 65.13 155.614 63.1957 156.245 61.1606C156.981 58.7507 157.323 56.1865 157.666 53.6757C158.106 50.417 159.051 47.2577 158.762 43.8497C158.615 42.0391 159.083 40.2195 159.048 38.4073C158.941 35.7963 158.667 33.1878 158.393 30.5793C158.331 30.2603 157.597 29.8978 157.146 29.691C156.864 29.5885 156.477 29.8074 156.087 29.8663C152.459 30.1855 148.831 30.5047 145.259 30.8231C145.036 30.8264 144.594 31.0993 144.597 31.2592C144.58 33.2855 144.731 35.3093 144.66 37.3897C144.501 40.7509 144.286 44.1129 143.96 47.4766C143.724 49.7193 142.929 51.9701 143.028 54.2079C143.089 57.3527 142.307 60.2964 141.357 63.1892C140.777 65.0104 140.143 66.8856 139.45 68.6551C139.025 69.7809 138.319 70.8575 137.781 71.9849C137.086 73.5945 136.505 75.3623 135.697 76.9202C134.836 78.6921 133.748 80.2541 132.611 82.1366Z" fill="white"/>
</svg>
