<svg width="298" height="214" viewBox="0 0 298 214" fill="none" xmlns="http://www.w3.org/2000/svg">
<path opacity="0.1" d="M132.055 12.406C155.974 12.2679 196.332 13.5142 208.44 57.826C212.526 74.0757 207.949 96.2935 197.958 102.269C186.294 111.212 175.86 103.876 164.737 102.461C153.122 99.5688 140.67 98.1611 127.874 99.7144C101.297 99.8679 75.3108 117.771 51.7849 103.113C44.9929 98.7137 45.2386 79.4799 51.9318 67.6061C76.8833 18.6421 104.641 14.0437 132.055 12.406Z" fill="white"/>
<path d="M80.6176 48.8822C79.2581 49.0232 77.8987 49.1641 76.5817 49.2581C76.1144 49.305 75.6471 49.0232 75.1798 49.0232C75.0099 49.0232 74.67 49.352 74.67 49.5399C74.7125 51.0433 74.755 52.4997 74.8399 54.0031C74.8824 55.0837 74.9674 56.2112 75.0948 57.2918C75.2223 58.1844 75.2648 59.077 74.585 59.6878C73.8203 60.3925 72.291 60.4865 71.5688 59.8287C71.2714 59.5468 71.1014 58.9831 71.0165 58.5603C70.889 57.9965 70.9315 57.3857 70.889 56.775C70.8041 54.6139 70.7191 52.4058 70.5917 50.2447C70.5492 49.7279 70.3792 49.352 69.742 49.446C67.363 49.7279 64.9839 49.9628 62.5624 50.2916C61.4154 50.4326 60.3109 49.352 60.2684 47.8956C60.2259 47.003 61.2455 46.1104 62.2651 46.0634C64.2193 45.9224 66.131 45.6405 68.0852 45.4526C68.2551 45.4526 68.425 45.4056 68.5525 45.3117C69.0623 44.9828 70.1668 46.1573 70.1244 44.513C70.1244 43.7613 70.1244 43.0566 70.1244 42.3049C70.1244 41.6002 70.1243 40.8485 70.2093 40.1438C70.2943 39.1572 70.4217 38.1706 70.5917 37.231C70.7616 36.2914 71.6537 35.9155 72.206 35.9155C72.7583 35.9625 73.523 36.6202 73.8203 37.231C74.2027 37.9827 74.2452 38.9693 74.3301 39.9089C74.4576 41.4123 74.5425 42.9626 74.6275 44.466C74.6275 44.6539 74.8824 44.9358 75.0523 44.9358C75.817 44.9358 76.6242 44.8419 77.3889 44.8419C78.6634 44.7949 79.9803 44.9358 81.2123 44.7479C82.2744 44.56 83.0391 45.1238 83.8462 45.4996C84.7809 45.9694 84.8658 47.003 84.1436 47.8486C83.4639 48.6473 82.6567 49.1171 81.5947 48.9762C81.2548 48.9292 80.9149 48.9762 80.5326 48.9762C80.6176 48.9292 80.6176 48.9292 80.6176 48.8822Z" fill="white"/>
<path opacity="0.8" d="M102.733 24.4531C105.51 24.4531 107.106 26.2496 107.519 29.8426L108.937 43.0554L108.76 43.2293V43.4031C109.587 48.7346 110.06 52.7332 110.178 55.399H110.001L110.178 55.9206H110.355L110.887 55.7467L111.773 55.9206H113.546L115.496 56.0944L115.673 55.9206H115.85C118.007 55.9206 120.016 57.3693 121.877 60.2669V61.1362C121.877 63.1355 120.045 64.6422 116.382 65.6563H115.673L114.078 65.4825L113.9 65.6563H113.723L111.773 65.4825L111.242 65.6563L110.355 65.4825H109.115L96.8841 66.004C94.6685 65.7722 93.1323 65.3666 92.2756 64.7871C91.4484 63.7729 91.0348 62.8457 91.0348 62.0054V61.8316C91.0348 59.8323 92.0392 58.4994 94.0481 57.8329L100.429 56.4421L98.8339 40.0999H98.6566C96.1751 41.6066 94.1663 42.36 92.6301 42.36C89.2032 42.1572 87.4897 41.0561 87.4897 39.0568V38.3614C87.8147 37.6949 89.41 36.42 92.2756 34.5366C94.1072 32.6242 96.4705 29.6687 99.3657 25.6701C100.577 24.8588 101.699 24.4531 102.733 24.4531Z" fill="white"/>
<path opacity="0.8" d="M137.121 24.4531C139.898 24.4531 141.493 26.2496 141.907 29.8426L143.325 43.0554L143.148 43.2293V43.4031C143.975 48.7346 144.448 52.7332 144.566 55.399H144.388L144.566 55.9206H144.743L145.275 55.7467L146.161 55.9206H147.934L149.883 56.0944L150.061 55.9206H150.238C152.394 55.9206 154.403 57.3693 156.264 60.2669V61.1362C156.264 63.1355 154.433 64.6422 150.77 65.6563H150.061L148.465 65.4825L148.288 65.6563H148.111L146.161 65.4825L145.629 65.6563L144.743 65.4825H143.502L131.272 66.004C129.056 65.7722 127.52 65.3666 126.663 64.7871C125.836 63.7729 125.422 62.8457 125.422 62.0054V61.8316C125.422 59.8323 126.427 58.4994 128.436 57.8329L134.817 56.4421L133.222 40.0999H133.044C130.563 41.6066 128.554 42.36 127.018 42.36C123.591 42.1572 121.877 41.0561 121.877 39.0568V38.3614C122.202 37.6949 123.798 36.42 126.663 34.5366C128.495 32.6242 130.858 29.6687 133.753 25.6701C134.965 24.8588 136.087 24.4531 137.121 24.4531Z" fill="white"/>
<path opacity="0.8" d="M174.533 24.4531C176.861 24.4531 179.667 26.4406 182.95 30.4156C185.577 34.5769 187.547 39.4835 188.861 45.1354L189.219 47.3713V50.7252C189.219 53.4891 188.025 56.5324 185.637 59.8552C182.92 63.0228 179.756 65.0103 176.145 65.8177L174.891 66.004L174.354 65.8177L173.279 66.004C167.787 66.004 163.906 62.8986 161.638 56.6877L160.563 51.6569L160.742 51.0979L160.563 50.1662C160.563 42.8063 162.294 36.1607 165.757 30.2293C168.563 26.3785 171.488 24.4531 174.533 24.4531ZM168.622 49.9799C169.04 54.9486 170.234 57.433 172.204 57.433L172.921 57.6193H174.354C176.592 57.6193 178.682 56.1287 180.622 53.1475L181.518 49.9799L181.338 49.0483V47.5577C181.07 44.1417 179.518 39.8562 176.682 34.7011C175.757 33.6142 175.04 32.931 174.533 32.6515C172.384 34.2042 170.712 37.4339 169.518 42.3405C168.921 45.0423 168.622 47.5887 168.622 49.9799Z" fill="white"/>
<path d="M97.4126 81.3964C99.8687 81.3964 102.751 82.5743 106.059 84.9301C107.149 86.0203 107.901 87.0479 108.315 88.0128C108.866 88.8524 109.142 89.9551 109.142 91.321L109.067 91.8473L109.142 92.4488C109.042 93.5766 108.841 94.4789 108.54 95.1556C108.54 95.4312 108.214 95.9576 107.563 96.7345C106.811 97.6869 105.984 98.3385 105.082 98.6893C105.082 98.9776 103.879 99.3786 101.473 99.8923L100.195 99.8171L100.119 99.8923H100.044C98.8286 99.7921 97.3499 99.4663 95.6081 98.9149C94.1294 98.138 93.0016 97.4362 92.2247 96.8097C90.8337 95.6192 89.8313 94.316 89.2172 92.9L88.7661 91.0955L88.8413 91.0203V90.9451L88.6909 90.0428C89.117 87.5867 89.4929 86.3587 89.8187 86.3587C90.3074 84.7547 90.7836 83.9527 91.2473 83.9527C92.939 82.3988 94.3425 81.6219 95.4577 81.6219C95.4577 81.5217 96.1094 81.4465 97.4126 81.3964ZM93.2773 90.1932V90.4188C93.2773 91.321 94.2046 92.4739 96.0592 93.8774C97.5504 94.7295 99.2296 95.1556 101.097 95.1556C103.302 94.8297 104.405 93.7771 104.405 91.9977V90.8699C103.941 89.4789 103.114 88.4514 101.924 87.7872C99.9564 86.6845 98.4527 86.1331 97.4126 86.1331H96.8863C95.0066 86.8975 93.954 87.5993 93.7284 88.2384C93.4277 88.7396 93.2773 89.3912 93.2773 90.1932ZM124.79 83.9527H124.865C125.842 83.9527 126.494 84.454 126.82 85.4564V85.9076C126.82 86.3086 126.268 87.3862 125.166 89.1406C123.812 92.3486 123.136 94.9049 123.136 96.8097V96.8849L123.06 97.1856L123.136 97.4864V97.8623C123.136 98.9776 122.409 99.6542 120.955 99.8923C120.166 99.8923 119.213 99.1906 118.098 97.7871C117.509 97.3109 116.782 96.4588 115.918 95.2307C112.797 91.2458 111.168 88.5642 111.03 87.1857C111.03 86.2835 111.632 85.7071 112.835 85.4564C113.487 85.4564 114.088 85.9076 114.639 86.8098L119.301 92.9H119.376C119.965 90.3561 120.817 88.2008 121.933 86.4339C123.11 84.7798 124.063 83.9527 124.79 83.9527ZM136.866 83.2008L137.392 83.276L137.768 83.2008C139.247 83.5392 140.325 84.1407 141.001 85.0053C141.628 85.5943 142.029 86.3462 142.204 87.2609L142.355 88.3887C142.154 89.5792 141.854 90.3311 141.453 90.6443C140.801 91.3962 139.097 92.1982 136.34 93.0503L134.46 93.4263L132.806 93.2007V93.2759C133.307 94.2032 134.385 94.9551 136.039 95.5315L137.543 95.7571L137.618 95.6819L138.595 95.7571C139.548 95.7571 141.327 95.5566 143.934 95.1556C145.287 95.2683 145.964 95.6443 145.964 96.2834V96.6593C145.964 97.3986 145.613 98.0753 144.911 98.6893C142.48 99.4913 140.4 99.8923 138.671 99.8923L138.295 99.8171L137.994 99.8923C135.839 99.8923 133.708 99.2157 131.603 97.8623C130.425 96.935 129.623 96.0077 129.197 95.0804L128.671 93.2007L128.746 92.9751L128.671 92.2985C128.671 90.2183 129.723 88.088 131.829 85.9076C133.834 84.2033 135.262 83.3512 136.114 83.3512L136.866 83.2008ZM133.182 89.9677V90.118L133.934 90.1932H134.084C134.949 90.1932 136.453 89.6419 138.595 88.5391L138.671 88.4639V88.2384C138.671 87.6995 138.245 87.2735 137.392 86.9602H136.866C135.5 87.4489 134.272 88.4514 133.182 89.9677ZM149.77 80.7949C150.221 80.7949 150.672 81.0956 151.123 81.6971C151.361 82.0981 151.562 82.7748 151.725 83.7271C152.903 82.875 154.055 82.449 155.183 82.449L155.258 82.3738H155.334C155.898 82.3738 156.725 82.5242 157.815 82.8249C158.817 82.9126 159.319 83.3136 159.319 84.0279V84.4038C159.319 85.2058 158.692 85.6068 157.439 85.6068C157.201 85.7948 156.399 86.0203 155.033 86.2835C153.855 86.8223 153.053 87.6995 152.627 88.915L152.401 89.9677L153.83 97.2608C153.629 99.0152 152.852 99.8923 151.499 99.8923C150.484 99.8923 149.732 99.2407 149.243 97.9375C148.842 97.1981 148.517 96.0202 148.266 94.4037L148.191 93.8022L148.266 93.2759L148.191 92.6744L148.266 92.0729L148.191 91.7721L148.266 90.9451L147.815 87.6369L147.89 87.5617L147.815 87.1857V86.7346L147.74 85.9076C147.74 83.6269 147.94 82.2234 148.341 81.6971C148.805 81.0956 149.281 80.7949 149.77 80.7949Z" fill="white"/>
<path opacity="0.1" d="M197.849 209.424C174.1 212.275 133.862 215.616 116.804 172.964C110.901 157.283 112.928 134.689 122.176 127.619C132.75 117.409 143.949 123.515 155.161 123.659C167.029 125.214 179.56 125.2 192.098 122.205C218.485 119.037 242.272 98.3013 267.31 110.196C274.557 113.795 276.495 132.933 271.192 145.49C251.957 196.968 224.9 204.686 197.849 209.424Z" fill="white"/>
<path d="M133.074 142.28C136.161 142.178 141.398 142.09 143.847 144.58C144.699 145.495 144.551 146.786 143.38 147.167C142.052 147.726 140.558 147.347 139.093 147.309C137.536 147.19 135.899 147.158 134.278 147.298C130.848 147.411 127.849 148.539 124.518 147.793C123.553 147.568 123.201 146.465 123.828 145.758C126.073 142.855 129.566 142.482 133.074 142.28Z" fill="white"/>
<path opacity="0.8" d="M167.91 122.553C170.687 122.553 172.282 124.35 172.696 127.943L174.114 141.156L173.936 141.33V141.503C174.763 146.835 175.236 150.834 175.354 153.499H175.177L175.354 154.021H175.532L176.063 153.847L176.95 154.021H178.722L180.672 154.195L180.849 154.021H181.026C183.183 154.021 185.192 155.47 187.053 158.367V159.236C187.053 161.236 185.221 162.743 181.558 163.757H180.849L179.254 163.583L179.077 163.757H178.899L176.95 163.583L176.418 163.757L175.532 163.583H174.291L162.06 164.104C159.845 163.873 158.309 163.467 157.452 162.887C156.625 161.873 156.211 160.946 156.211 160.106V159.932C156.211 157.933 157.215 156.6 159.224 155.933L165.605 154.542L164.01 138.2H163.833C161.351 139.707 159.343 140.46 157.806 140.46C154.379 140.258 152.666 139.156 152.666 137.157V136.462C152.991 135.795 154.586 134.52 157.452 132.637C159.283 130.725 161.647 127.769 164.542 123.77C165.753 122.959 166.876 122.553 167.91 122.553Z" fill="white"/>
<path opacity="0.8" d="M202.296 122.553C205.073 122.553 206.669 124.35 207.082 127.943L208.5 141.156L208.323 141.33V141.503C209.15 146.835 209.623 150.834 209.741 153.499H209.564L209.741 154.021H209.918L210.45 153.847L211.336 154.021H213.109L215.059 154.195L215.236 154.021H215.413C217.57 154.021 219.579 155.47 221.44 158.367V159.236C221.44 161.236 219.608 162.743 215.945 163.757H215.236L213.641 163.583L213.463 163.757H213.286L211.336 163.583L210.805 163.757L209.918 163.583H208.678L196.447 164.104C194.231 163.873 192.695 163.467 191.839 162.887C191.011 161.873 190.598 160.946 190.598 160.106V159.932C190.598 157.933 191.602 156.6 193.611 155.933L199.992 154.542L198.397 138.2H198.22C195.738 139.707 193.729 140.46 192.193 140.46C188.766 140.258 187.053 139.156 187.053 137.157V136.462C187.378 135.795 188.973 134.52 191.839 132.637C193.67 130.725 196.034 127.769 198.929 123.77C200.14 122.959 201.262 122.553 202.296 122.553Z" fill="white"/>
<path opacity="0.8" d="M239.708 122.553C242.036 122.553 244.842 124.541 248.126 128.516C250.752 132.677 252.722 137.584 254.036 143.236L254.394 145.472V148.826C254.394 151.589 253.2 154.633 250.812 157.956C248.096 161.123 244.932 163.111 241.32 163.918L240.066 164.104L239.529 163.918L238.454 164.104C232.962 164.104 229.081 160.999 226.813 154.788L225.738 149.757L225.917 149.198L225.738 148.267C225.738 140.907 227.47 134.261 230.932 128.33C233.738 124.479 236.663 122.553 239.708 122.553ZM233.798 148.08C234.216 153.049 235.41 155.533 237.38 155.533L238.096 155.72H239.529C241.768 155.72 243.857 154.229 245.797 151.248L246.693 148.08L246.514 147.149V145.658C246.245 142.242 244.693 137.956 241.857 132.801C240.932 131.715 240.215 131.031 239.708 130.752C237.559 132.305 235.887 135.534 234.693 140.441C234.096 143.143 233.798 145.689 233.798 148.08Z" fill="white"/>
<path d="M161.393 181.734H161.769C162.708 181.734 163.41 182.536 163.874 184.14C164.776 186.922 165.227 188.526 165.227 188.952C165.29 188.952 165.34 189.654 165.378 191.058L165.302 191.133V191.208L165.378 191.659V191.809L165.302 192.561L165.378 193.163C164.977 195.268 164.601 196.546 164.25 196.997C163.435 198.702 161.957 199.98 159.814 200.832C158.385 201.383 156.982 201.659 155.603 201.659C154.388 201.546 153.085 201.245 151.694 200.757C150.152 200.093 148.924 199.291 148.009 198.351C146.618 197.21 145.641 195.406 145.077 192.937C144.927 192.248 144.801 191.12 144.701 189.554C144.839 186.496 145.115 184.967 145.528 184.967C145.528 184.667 146.004 184.416 146.957 184.216C147.972 184.216 148.674 184.717 149.062 185.719L149.137 186.17V186.246L149.062 186.997L149.137 187.223L149.062 187.975C149.062 192.21 150.09 194.817 152.145 195.794C153.26 196.546 154.513 196.922 155.904 196.922C157.333 196.922 158.636 196.396 159.814 195.343C160.365 194.316 160.641 193.363 160.641 192.486V191.659L160.716 191.283C160.716 190.218 160.34 188.313 159.588 185.569L159.287 183.84C159.5 182.436 160.202 181.734 161.393 181.734ZM169.898 183.764H170.123C171.113 183.764 171.74 184.241 172.003 185.193L172.229 186.321C173.319 185.769 174.146 185.494 174.71 185.494C177.617 185.494 180.023 186.847 181.928 189.554C183.131 191.935 183.732 194.541 183.732 197.373L183.657 197.448V197.524L183.732 197.599V197.674C183.732 200.03 183.482 201.208 182.98 201.208C182.767 201.509 182.366 201.659 181.777 201.659H181.702C180.737 201.659 180.186 201.032 180.048 199.779C179.86 195.669 179.559 193.313 179.146 192.712C178.657 191.22 177.78 190.168 176.514 189.554C175.787 189.303 175.286 189.178 175.011 189.178C173.845 189.178 173.068 190.632 172.68 193.539V194.215C172.68 195.243 172.88 197.098 173.281 199.779C173.281 200.857 172.605 201.483 171.251 201.659C170.048 201.659 169.346 200.707 169.146 198.802C168.494 193.113 168.169 189.729 168.169 188.652L168.319 186.772L168.244 185.419C168.507 184.316 169.058 183.764 169.898 183.764ZM194.38 178.877H194.455C195.658 178.877 196.26 180.256 196.26 183.013C196.661 186.584 197.287 190.97 198.14 196.17L198.44 198.651V199.554C198.44 200.381 198.064 200.982 197.312 201.358L194.531 201.659L194.155 201.584L193.478 201.659C191.235 201.308 189.631 200.907 188.666 200.456C186.661 199.428 185.658 197.749 185.658 195.418C185.658 192.624 186.46 190.694 188.064 189.629C188.616 188.952 189.844 188.426 191.749 188.05L192.726 187.975L192.801 188.05L192.576 185.118L192.651 185.043L192.576 184.291V183.614C192.576 180.456 193.177 178.877 194.38 178.877ZM189.042 194.817C189.042 196.095 189.568 196.872 190.621 197.148C191.21 197.348 192.212 197.549 193.628 197.749H194.079V197.674L193.177 191.283L192.651 191.208H192.425C191.185 191.208 190.132 191.86 189.267 193.163C189.117 193.614 189.042 194.165 189.042 194.817ZM208.637 184.967L209.163 185.043L209.539 184.967C211.018 185.306 212.096 185.907 212.772 186.772C213.399 187.361 213.8 188.113 213.975 189.028L214.126 190.155C213.925 191.346 213.625 192.098 213.224 192.411C212.572 193.163 210.868 193.965 208.111 194.817L206.231 195.193L204.577 194.967V195.042C205.078 195.97 206.156 196.722 207.81 197.298L209.314 197.524L209.389 197.448L210.366 197.524C211.319 197.524 213.098 197.323 215.705 196.922C217.058 197.035 217.735 197.411 217.735 198.05V198.426C217.735 199.165 217.384 199.842 216.682 200.456C214.251 201.258 212.171 201.659 210.442 201.659L210.066 201.584L209.765 201.659C207.61 201.659 205.479 200.982 203.374 199.629C202.196 198.702 201.394 197.774 200.968 196.847L200.442 194.967L200.517 194.742L200.442 194.065C200.442 191.985 201.494 189.855 203.6 187.674C205.605 185.97 207.033 185.118 207.885 185.118L208.637 184.967ZM204.953 191.734V191.885L205.705 191.96H205.855C206.72 191.96 208.224 191.408 210.366 190.306L210.442 190.231V190.005C210.442 189.466 210.016 189.04 209.163 188.727H208.637C207.271 189.215 206.043 190.218 204.953 191.734ZM221.541 182.561C221.992 182.561 222.443 182.862 222.894 183.464C223.132 183.865 223.333 184.541 223.496 185.494C224.673 184.642 225.826 184.216 226.954 184.216L227.029 184.14H227.105C227.668 184.14 228.495 184.291 229.586 184.592C230.588 184.679 231.089 185.08 231.089 185.794V186.17C231.089 186.972 230.463 187.373 229.21 187.373C228.972 187.561 228.17 187.787 226.804 188.05C225.626 188.589 224.824 189.466 224.398 190.682L224.172 191.734L225.601 199.027C225.4 200.782 224.623 201.659 223.27 201.659C222.255 201.659 221.503 201.007 221.014 199.704C220.613 198.965 220.288 197.787 220.037 196.17L219.962 195.569L220.037 195.042L219.962 194.441L220.037 193.839L219.962 193.539L220.037 192.712L219.586 189.403L219.661 189.328L219.586 188.952V188.501L219.511 187.674C219.511 185.393 219.711 183.99 220.112 183.464C220.576 182.862 221.052 182.561 221.541 182.561Z" fill="white"/>
<g opacity="0.3">
<path d="M254.681 30.6799C254.764 31.3449 254.819 32.0035 254.908 32.6406C254.98 33.0975 255.079 33.5607 255.179 34.0239C255.28 34.6052 255.553 35.0786 256.06 35.429C257.226 36.2238 257.344 37.2492 256.461 38.1639C256.346 38.2844 256.203 38.3986 256.044 38.4505C255.231 38.6761 254.568 39.1416 253.969 39.7099C253.602 40.0372 253.142 40.2553 252.802 40.5889C252.047 41.3272 251.496 42.2001 251.149 43.2076C250.96 43.7811 250.85 44.5196 250.448 44.8685C250.046 45.2173 249.299 45.2817 248.729 45.2105C248.103 45.1265 247.74 44.6619 247.711 43.8916C247.665 42.6771 247.363 41.4334 247.318 40.2189C247.27 38.8865 246.709 37.8774 245.722 37.0649C245.228 36.6586 244.728 36.2803 244.229 35.9019C243.806 35.5705 243.879 34.7356 244.358 34.4337C244.741 34.1686 245.115 33.8134 245.528 33.6727C246.203 33.4154 246.901 33.3103 247.568 33.0808C247.885 32.9769 248.206 32.727 248.409 32.4796C249.086 31.6943 249.736 30.9027 250.336 30.0705C250.827 29.3308 251.241 28.5442 251.655 27.7575C251.903 27.3147 253.101 26.5601 253.574 26.6681C254.215 26.8143 254.688 27.5683 254.689 28.3322C254.695 28.9502 254.79 29.5594 254.824 30.1837C254.841 30.364 254.803 30.5314 254.765 30.6989C254.743 30.6647 254.709 30.6862 254.681 30.6799ZM253.706 36.6249C253.571 36.4471 253.457 36.3037 253.377 36.1387C253.147 35.7338 252.855 35.3441 252.694 34.8961C252.468 34.3453 252.366 33.764 252.202 33.198C252.171 33.0736 252.023 32.9517 251.959 32.8489C251.844 32.9694 251.734 33.062 251.591 33.1762C251.401 33.3677 251.239 33.5656 251.055 33.7293C250.802 33.936 250.516 34.1644 250.242 34.3368C249.763 34.6387 249.29 34.9126 248.789 35.1802C248.618 35.288 248.426 35.3616 248.338 35.4884C248.257 35.5874 248.262 35.8234 248.333 35.8983C248.929 36.6219 249.458 37.3885 249.651 38.3429C249.713 38.7097 249.963 39.0308 250.122 39.3608C250.396 39.1883 250.691 39.0501 250.943 38.8434C251.046 38.7787 251.078 38.6391 251.187 38.5465C251.657 38.1545 252.1 37.7562 252.592 37.3986C252.934 37.1829 253.289 36.9115 253.706 36.6249Z" fill="white"/>
<path d="M103.699 198.062C103.673 196.769 104.532 196.13 105.49 195.427C107.061 194.288 108.345 192.771 109.971 191.644C114.672 188.282 115.047 189.167 115.728 189.576C116.258 189.894 116.539 190.558 115.945 191.17C115.104 191.984 114.188 192.754 113.305 193.502C112.11 194.495 110.97 195.501 109.711 196.394C108.473 197.321 107.13 198.081 105.905 198.953C105.192 199.453 104.707 199.059 104.168 198.653C103.975 198.495 103.826 198.262 103.699 198.062Z" fill="white"/>
<path d="M96.1891 187.051C95.5251 187.333 94.8065 187.602 94.1849 187.95C93.2296 188.511 92.3109 188.907 91.1623 188.795C90.2442 188.677 90.0747 188.41 90.2151 187.525C90.4683 186.008 91.4935 185.263 92.8093 184.754C93.4945 184.506 94.1406 184.048 94.838 183.746C95.1594 183.588 95.5745 183.652 95.8414 183.482C97.2182 182.701 98.8338 182.516 100.044 181.326C100.593 180.79 101.669 180.714 102.506 180.557C103.276 180.442 104.321 181.275 104.438 181.902C104.522 182.551 103.609 183.693 102.757 184.047C101.462 184.589 100.176 185.219 98.9241 185.828C98.9241 185.828 97.1079 186.654 96.1891 187.051Z" fill="white"/>
<path d="M100.772 170.937C99.2505 171.342 97.7286 171.748 96.1856 172.12C94.4546 172.565 92.6902 173.032 90.9169 173.41C90.1348 173.579 89.3347 173.573 88.5346 173.567C88.3921 173.564 88.156 173.34 88.0501 173.173C87.3755 171.964 88.2684 170.274 89.6446 170.008C90.845 169.759 92.0365 169.423 93.2369 169.175C94.9223 168.806 96.629 168.47 98.3144 168.101C98.6449 168.031 98.9663 167.874 99.3089 167.75C100.149 167.45 100.809 167.826 101.469 168.201C101.545 168.247 101.63 168.38 101.66 168.501C101.878 169.065 101.252 170.585 100.772 170.937Z" fill="white"/>
<path d="M33.9381 37.2753C33.346 37.6346 32.9064 37.9261 32.4384 38.2142C21.9578 44.645 13.1184 53.9254 10.2037 66.1771C9.98227 67.0424 10.6135 68.0121 11.6076 67.9036C12.6904 67.7772 12.8497 66.2422 13.0745 65.3486C15.2492 56.547 21.8249 48.0833 29.4082 43.1686C30.9752 42.1515 32.5851 41.2549 34.1701 40.3264C34.358 40.2055 34.5494 40.0562 34.7407 39.9069C34.9924 39.7363 35.276 39.5407 35.5277 39.37C35.5776 39.4337 35.6025 39.4656 35.6524 39.5292C34.7682 40.8603 33.8555 42.1878 33.0495 43.586C32.8338 43.9338 32.6396 44.3418 32.733 44.7563C32.8195 45.2275 33.7213 47.7561 35.4526 44.4562C36.4313 42.5898 37.9112 40.8711 38.8081 38.9659C39.0627 38.5365 39.2673 38.0434 39.4401 37.5752C40.0215 35.8904 37.8748 35.282 36.7803 35.0327C34.8436 34.5939 32.893 34.2685 30.932 34.0282C30.1931 33.9377 28.4502 34.2711 28.6523 35.4473C28.7603 35.9787 29.6466 36.7495 30.2435 36.8226C31.4656 36.9723 32.6876 37.1221 33.9381 37.2753Z" fill="white"/>
<path d="M7.68577 206.633C6.97143 206.69 6.19993 206.662 5.3713 206.519C3.37114 206.204 2.08533 205.516 0.88523 203.884C0.199461 202.939 -0.14343 201.909 0.0565855 200.62C0.199454 199.704 0.34233 198.845 0.742361 198.043C0.942377 197.671 1.22811 197.356 1.51385 197.041C3.57115 194.808 7.05715 193.347 10.1431 194.292C10.8575 194.521 11.5146 194.922 12.1147 195.352C12.7719 195.81 13.3719 196.325 13.8005 197.012C14.2577 197.785 14.4006 198.702 14.4577 199.589C14.5435 200.563 14.5149 201.536 14.2291 202.481C13.6862 204.199 11.829 205.459 10.2288 206.06C9.28589 206.347 8.48583 206.547 7.68577 206.633ZM7.5429 204.142C7.91436 204.113 8.28582 204.056 8.60013 203.97C9.54306 203.713 10.5431 203.312 11.1146 202.539C11.4861 202.023 11.6575 201.365 11.7432 200.706C11.8861 199.389 11.5146 197.929 10.4574 197.127C9.20018 196.153 7.40003 196.354 5.94277 196.984C4.68553 197.528 3.48543 198.444 2.97111 199.733C1.68529 202.968 4.88555 204.314 7.5429 204.142Z" fill="white"/>
<path d="M294.688 98.9028C293.773 98.9887 292.859 99.0746 291.973 99.1318C291.659 99.1605 291.345 98.9887 291.03 98.9887C290.916 98.9887 290.687 99.1891 290.687 99.3036C290.716 100.22 290.744 101.108 290.802 102.024C290.83 102.682 290.887 103.37 290.973 104.028C291.059 104.572 291.087 105.116 290.63 105.488C290.116 105.918 289.087 105.975 288.601 105.574C288.401 105.402 288.287 105.059 288.23 104.801C288.144 104.458 288.173 104.085 288.144 103.713C288.087 102.396 288.03 101.05 287.944 99.7331C287.916 99.4182 287.801 99.1891 287.373 99.2464C285.773 99.4182 284.173 99.5613 282.544 99.7618C281.772 99.8476 281.029 99.1891 281.001 98.3015C280.972 97.7574 281.658 97.2134 282.344 97.1848C283.658 97.0989 284.944 96.9271 286.258 96.8125C286.373 96.8125 286.487 96.7839 286.573 96.7266C286.916 96.5262 287.659 97.242 287.63 96.2399C287.63 95.7817 287.63 95.3522 287.63 94.8941C287.63 94.4646 287.63 94.0065 287.687 93.577C287.744 92.9757 287.83 92.3744 287.944 91.8017C288.059 91.2291 288.659 91 289.03 91C289.402 91.0286 289.916 91.4295 290.116 91.8017C290.373 92.2599 290.402 92.8612 290.459 93.4338C290.544 94.3501 290.602 95.295 290.659 96.2112C290.659 96.3258 290.83 96.4976 290.944 96.4976C291.459 96.4976 292.002 96.4403 292.516 96.4403C293.373 96.4117 294.259 96.4976 295.088 96.383C295.802 96.2685 296.316 96.6121 296.859 96.8412C297.488 97.1275 297.545 97.7574 297.059 98.2728C296.602 98.7596 296.059 99.0459 295.345 98.96C295.116 98.9314 294.888 98.96 294.63 98.96C294.688 98.9314 294.688 98.9314 294.688 98.9028Z" fill="white"/>
</g>
</svg>
